<svg xmlns="http://www.w3.org/2000/svg" viewBox="0 0 140 32" fill="none">
  <path d="M8 24V8h4l4 10 4-10h4v16h-3V13l-3.5 8.5h-3L10 13v11H8Zm24-8c0-4.4 3.1-8 8-8 4.4 0 7 3.1 7 7v1h-11.5c.3 2.5 2 4 4.5 4 1.5 0 2.8-.6 3.7-1.6l2 1.5c-1.3 1.7-3.4 2.7-5.7 2.7-4.5 0-8-3.2-8-7.6Zm3-1.5h8.5c-.3-2.2-1.8-3.5-4-3.5s-4 1.3-4.5 3.5Zm16 9.5V12c0-1.1.4-2 1.2-2.7.7-.6 1.7-1 2.8-1 2 0 3.5 1.2 4 3l-2.5.8c-.3-1-.8-1.5-1.7-1.5-.7 0-1.2.3-1.5.8-.3.5-.4 1-.4 1.9v7.7h-2Zm12.5 1.2c-4.5 0-8-3.2-8-7.6s3.5-7.6 8-7.6c2.7 0 4.8 1.2 6.2 3l-2.2 1.5c-1-1.4-2.3-2.2-4-2.2-3 0-5.2 2.2-5.2 5.3s2.2 5.3 5.2 5.3c1.7 0 3-.8 4-2.2l2.2 1.5c-1.4 1.8-3.5 3-6.2 3Zm10.2-1.2V12c0-1.1.4-2 1.2-2.7.7-.6 1.7-1 2.8-1 2 0 3.5 1.2 4 3l-2.5.8c-.3-1-.8-1.5-1.7-1.5-.7 0-1.2.3-1.5.8-.3.5-.4 1-.4 1.9v7.7h-2Zm11 0v-9h-3v-2h3V9c0-1.3.4-2.3 1.2-3 .7-.7 1.7-1 3-1 .6 0 1.3.1 2 .3v2.3c-.5-.2-1-.3-1.5-.3-1 0-1.4.4-1.4 1.4v2.3h3v2h-3v9h-2.3Z" fill="#00D4AA"/>
  <text x="54" y="22" font-family="'Syne', sans-serif" font-size="14" font-weight="700" fill="#E6EDF3" letter-spacing="2">PageIQ</text>
</svg>
